solid OpenSCAD_Model
  facet normal -1 0 0
    outer loop
      vertex -10 -9.75 21.25
      vertex -10 -9.75 22.25
      vertex -10 9.75 21.25
    endloop
  endfacet
  facet normal -1 0 0
    outer loop
      vertex -10 9.75 21.25
      vertex -10 -9.75 22.25
      vertex -10 9.75 22.25
    endloop
  endfacet
  facet normal 0 -1 0
    outer loop
      vertex -10 -9.75 22.25
      vertex -10 -9.75 21.25
      vertex 10 -9.75 21.25
    endloop
  endfacet
  facet normal 0 -1 0
    outer loop
      vertex 10 -9.75 22.25
      vertex -10 -9.75 22.25
      vertex 10 -9.75 21.25
    endloop
  endfacet
  facet normal 0 0 -1
    outer loop
      vertex 8.75 -8.5 21.25
      vertex 10 -9.75 21.25
      vertex -8.75 -8.5 21.25
    endloop
  endfacet
  facet normal 0 0 -1
    outer loop
      vertex 8.75 8.5 21.25
      vertex -10 9.75 21.25
      vertex 10 9.75 21.25
    endloop
  endfacet
  facet normal 0 0 -1
    outer loop
      vertex -10 -9.75 21.25
      vertex -10 9.75 21.25
      vertex -8.75 8.5 21.25
    endloop
  endfacet
  facet normal 0 0 -1
    outer loop
      vertex -10 -9.75 21.25
      vertex -8.75 8.5 21.25
      vertex -8.75 -8.5 21.25
    endloop
  endfacet
  facet normal 0 0 -1
    outer loop
      vertex -10 -9.75 21.25
      vertex -8.75 -8.5 21.25
      vertex 10 -9.75 21.25
    endloop
  endfacet
  facet normal 0 0 -1
    outer loop
      vertex 10 -9.75 21.25
      vertex 8.75 -8.5 21.25
      vertex 10 9.75 21.25
    endloop
  endfacet
  facet normal 0 0 -1
    outer loop
      vertex 8.75 -8.5 21.25
      vertex 8.75 8.5 21.25
      vertex 10 9.75 21.25
    endloop
  endfacet
  facet normal 0 0 -1
    outer loop
      vertex -8.75 8.5 21.25
      vertex -10 9.75 21.25
      vertex 8.75 8.5 21.25
    endloop
  endfacet
  facet normal 0 1 0
    outer loop
      vertex -10 9.75 21.25
      vertex -10 9.75 22.25
      vertex 10 9.75 21.25
    endloop
  endfacet
  facet normal 0 1 0
    outer loop
      vertex 10 9.75 21.25
      vertex -10 9.75 22.25
      vertex 10 9.75 22.25
    endloop
  endfacet
  facet normal 0 0 1
    outer loop
      vertex -10 9.75 22.25
      vertex -10 -9.75 22.25
      vertex 10 -9.75 22.25
    endloop
  endfacet
  facet normal 0 0 1
    outer loop
      vertex 10 9.75 22.25
      vertex -10 9.75 22.25
      vertex 10 -9.75 22.25
    endloop
  endfacet
  facet normal 1 0 0
    outer loop
      vertex 10 -9.75 22.25
      vertex 10 -9.75 21.25
      vertex 10 9.75 21.25
    endloop
  endfacet
  facet normal 1 0 0
    outer loop
      vertex 10 9.75 22.25
      vertex 10 -9.75 22.25
      vertex 10 9.75 21.25
    endloop
  endfacet
  facet normal -1 0 0
    outer loop
      vertex -8.75 -8.5 18.75
      vertex -8.75 -8.5 21.25
      vertex -8.75 8.5 18.75
    endloop
  endfacet
  facet normal -1 0 0
    outer loop
      vertex -8.75 8.5 18.75
      vertex -8.75 -8.5 21.25
      vertex -8.75 8.5 21.25
    endloop
  endfacet
  facet normal 0 1 0
    outer loop
      vertex -8.75 8.5 18.75
      vertex -8.75 8.5 21.25
      vertex 8.75 8.5 18.75
    endloop
  endfacet
  facet normal 0 1 0
    outer loop
      vertex 8.75 8.5 18.75
      vertex -8.75 8.5 21.25
      vertex 8.75 8.5 21.25
    endloop
  endfacet
  facet normal 1 0 0
    outer loop
      vertex 8.75 -8.5 21.25
      vertex 8.75 -8.5 18.75
      vertex 8.75 8.5 18.75
    endloop
  endfacet
  facet normal 1 0 0
    outer loop
      vertex 8.75 8.5 21.25
      vertex 8.75 -8.5 21.25
      vertex 8.75 8.5 18.75
    endloop
  endfacet
  facet normal 0 -1 0
    outer loop
      vertex -8.75 -8.5 21.25
      vertex -8.75 -8.5 18.75
      vertex 8.75 -8.5 18.75
    endloop
  endfacet
  facet normal 0 -1 0
    outer loop
      vertex 8.75 -8.5 21.25
      vertex -8.75 -8.5 21.25
      vertex 8.75 -8.5 18.75
    endloop
  endfacet
  facet normal 0 0 -1
    outer loop
      vertex 1.25 2.16506 18.75
      vertex -8.75 8.5 18.75
      vertex 8.75 8.5 18.75
    endloop
  endfacet
  facet normal 0 0 -1
    outer loop
      vertex -8.75 -8.5 18.75
      vertex -8.75 8.5 18.75
      vertex -2.5 0 18.75
    endloop
  endfacet
  facet normal 0 0 -1
    outer loop
      vertex -8.75 -8.5 18.75
      vertex -2.5 0 18.75
      vertex -2.44537 -0.519779 18.75
    endloop
  endfacet
  facet normal 0 0 -1
    outer loop
      vertex -8.75 -8.5 18.75
      vertex -2.44537 -0.519779 18.75
      vertex -2.28386 -1.01684 18.75
    endloop
  endfacet
  facet normal 0 0 -1
    outer loop
      vertex -8.75 -8.5 18.75
      vertex -2.28386 -1.01684 18.75
      vertex -2.02254 -1.46946 18.75
    endloop
  endfacet
  facet normal 0 0 -1
    outer loop
      vertex -8.75 -8.5 18.75
      vertex -2.02254 -1.46946 18.75
      vertex -1.67283 -1.85786 18.75
    endloop
  endfacet
  facet normal 0 0 -1
    outer loop
      vertex -8.75 -8.5 18.75
      vertex -1.67283 -1.85786 18.75
      vertex -1.25 -2.16506 18.75
    endloop
  endfacet
  facet normal 0 0 -1
    outer loop
      vertex -8.75 -8.5 18.75
      vertex -1.25 -2.16506 18.75
      vertex 8.75 -8.5 18.75
    endloop
  endfacet
  facet normal 0 0 -1
    outer loop
      vertex -0.261321 -2.4863 18.75
      vertex 8.75 -8.5 18.75
      vertex -0.772542 -2.37764 18.75
    endloop
  endfacet
  facet normal 0 0 -1
    outer loop
      vertex 0.261321 -2.4863 18.75
      vertex 8.75 -8.5 18.75
      vertex -0.261321 -2.4863 18.75
    endloop
  endfacet
  facet normal 0 0 -1
    outer loop
      vertex 0.772542 -2.37764 18.75
      vertex 8.75 -8.5 18.75
      vertex 0.261321 -2.4863 18.75
    endloop
  endfacet
  facet normal 0 0 -1
    outer loop
      vertex 2.02254 -1.46946 18.75
      vertex 8.75 -8.5 18.75
      vertex 1.67283 -1.85786 18.75
    endloop
  endfacet
  facet normal 0 0 -1
    outer loop
      vertex 0.772542 -2.37764 18.75
      vertex 1.25 -2.16506 18.75
      vertex 8.75 -8.5 18.75
    endloop
  endfacet
  facet normal 0 0 -1
    outer loop
      vertex -2.28386 1.01684 18.75
      vertex -8.75 8.5 18.75
      vertex -2.02254 1.46946 18.75
    endloop
  endfacet
  facet normal 0 0 -1
    outer loop
      vertex 1.25 -2.16506 18.75
      vertex 1.67283 -1.85786 18.75
      vertex 8.75 -8.5 18.75
    endloop
  endfacet
  facet normal 0 0 -1
    outer loop
      vertex -2.02254 1.46946 18.75
      vertex -8.75 8.5 18.75
      vertex -1.67283 1.85786 18.75
    endloop
  endfacet
  facet normal 0 0 -1
    outer loop
      vertex 8.75 -8.5 18.75
      vertex 2.02254 -1.46946 18.75
      vertex 8.75 8.5 18.75
    endloop
  endfacet
  facet normal 0 0 -1
    outer loop
      vertex 2.02254 -1.46946 18.75
      vertex 2.28386 -1.01684 18.75
      vertex 8.75 8.5 18.75
    endloop
  endfacet
  facet normal 0 0 -1
    outer loop
      vertex -1.67283 1.85786 18.75
      vertex -8.75 8.5 18.75
      vertex -1.25 2.16506 18.75
    endloop
  endfacet
  facet normal 0 0 -1
    outer loop
      vertex 2.28386 -1.01684 18.75
      vertex 2.44537 -0.519779 18.75
      vertex 8.75 8.5 18.75
    endloop
  endfacet
  facet normal 0 0 -1
    outer loop
      vertex -1.25 2.16506 18.75
      vertex -8.75 8.5 18.75
      vertex -0.772542 2.37764 18.75
    endloop
  endfacet
  facet normal 0 0 -1
    outer loop
      vertex 2.44537 -0.519779 18.75
      vertex 2.5 0 18.75
      vertex 8.75 8.5 18.75
    endloop
  endfacet
  facet normal 0 0 -1
    outer loop
      vertex 2.5 0 18.75
      vertex 2.44537 0.519779 18.75
      vertex 8.75 8.5 18.75
    endloop
  endfacet
  facet normal 0 0 -1
    outer loop
      vertex -0.772542 2.37764 18.75
      vertex -8.75 8.5 18.75
      vertex -0.261321 2.4863 18.75
    endloop
  endfacet
  facet normal 0 0 -1
    outer loop
      vertex 2.44537 0.519779 18.75
      vertex 2.28386 1.01684 18.75
      vertex 8.75 8.5 18.75
    endloop
  endfacet
  facet normal 0 0 -1
    outer loop
      vertex -0.261321 2.4863 18.75
      vertex -8.75 8.5 18.75
      vertex 0.261321 2.4863 18.75
    endloop
  endfacet
  facet normal 0 0 -1
    outer loop
      vertex 2.28386 1.01684 18.75
      vertex 2.02254 1.46946 18.75
      vertex 8.75 8.5 18.75
    endloop
  endfacet
  facet normal 0 0 -1
    outer loop
      vertex 0.261321 2.4863 18.75
      vertex -8.75 8.5 18.75
      vertex 0.772542 2.37764 18.75
    endloop
  endfacet
  facet normal 0 0 -1
    outer loop
      vertex 2.02254 1.46946 18.75
      vertex 1.67283 1.85786 18.75
      vertex 8.75 8.5 18.75
    endloop
  endfacet
  facet normal 0 0 -1
    outer loop
      vertex 1.67283 1.85786 18.75
      vertex 1.25 2.16506 18.75
      vertex 8.75 8.5 18.75
    endloop
  endfacet
  facet normal 0 0 -1
    outer loop
      vertex 0.772542 2.37764 18.75
      vertex -8.75 8.5 18.75
      vertex 1.25 2.16506 18.75
    endloop
  endfacet
  facet normal 0 0 -1
    outer loop
      vertex -2.44537 0.519779 18.75
      vertex -8.75 8.5 18.75
      vertex -2.28386 1.01684 18.75
    endloop
  endfacet
  facet normal 0 0 -1
    outer loop
      vertex -2.5 0 18.75
      vertex -8.75 8.5 18.75
      vertex -2.44537 0.519779 18.75
    endloop
  endfacet
  facet normal 0 0 -1
    outer loop
      vertex -0.772542 -2.37764 18.75
      vertex 8.75 -8.5 18.75
      vertex -1.25 -2.16506 18.75
    endloop
  endfacet
  facet normal 0.994522 -0.104529 0
    outer loop
      vertex -2.44537 0.519779 18.75
      vertex -2.44537 0.519779 21.25
      vertex -2.5 0 21.25
    endloop
  endfacet
  facet normal 0.994522 -0.104529 0
    outer loop
      vertex -2.5 0 18.75
      vertex -2.44537 0.519779 18.75
      vertex -2.5 0 21.25
    endloop
  endfacet
  facet normal 0.994522 0.104529 0
    outer loop
      vertex -2.5 0 21.25
      vertex -2.44537 -0.519779 21.25
      vertex -2.44537 -0.519779 18.75
    endloop
  endfacet
  facet normal 0.994522 0.104529 0
    outer loop
      vertex -2.5 0 18.75
      vertex -2.5 0 21.25
      vertex -2.44537 -0.519779 18.75
    endloop
  endfacet
  facet normal 0.951057 -0.309016 0
    outer loop
      vertex -2.28386 1.01684 18.75
      vertex -2.28386 1.01684 21.25
      vertex -2.44537 0.519779 21.25
    endloop
  endfacet
  facet normal 0.951057 -0.309016 0
    outer loop
      vertex -2.44537 0.519779 18.75
      vertex -2.28386 1.01684 18.75
      vertex -2.44537 0.519779 21.25
    endloop
  endfacet
  facet normal 0.866024 -0.500002 0
    outer loop
      vertex -2.02254 1.46946 18.75
      vertex -2.02254 1.46946 21.25
      vertex -2.28386 1.01684 21.25
    endloop
  endfacet
  facet normal 0.866024 -0.500002 0
    outer loop
      vertex -2.28386 1.01684 18.75
      vertex -2.02254 1.46946 18.75
      vertex -2.28386 1.01684 21.25
    endloop
  endfacet
  facet normal 0.743146 -0.66913 0
    outer loop
      vertex -1.67283 1.85786 18.75
      vertex -1.67283 1.85786 21.25
      vertex -2.02254 1.46946 21.25
    endloop
  endfacet
  facet normal 0.743146 -0.66913 0
    outer loop
      vertex -2.02254 1.46946 18.75
      vertex -1.67283 1.85786 18.75
      vertex -2.02254 1.46946 21.25
    endloop
  endfacet
  facet normal 0.587786 -0.809017 0
    outer loop
      vertex -1.25 2.16506 18.75
      vertex -1.25 2.16506 21.25
      vertex -1.67283 1.85786 21.25
    endloop
  endfacet
  facet normal 0.587786 -0.809017 0
    outer loop
      vertex -1.67283 1.85786 18.75
      vertex -1.25 2.16506 18.75
      vertex -1.67283 1.85786 21.25
    endloop
  endfacet
  facet normal 0.406735 -0.913546 0
    outer loop
      vertex -0.772542 2.37764 18.75
      vertex -0.772542 2.37764 21.25
      vertex -1.25 2.16506 21.25
    endloop
  endfacet
  facet normal 0.406735 -0.913546 0
    outer loop
      vertex -1.25 2.16506 18.75
      vertex -0.772542 2.37764 18.75
      vertex -1.25 2.16506 21.25
    endloop
  endfacet
  facet normal 0.207913 -0.978147 0
    outer loop
      vertex -0.261321 2.4863 18.75
      vertex -0.261321 2.4863 21.25
      vertex -0.772542 2.37764 21.25
    endloop
  endfacet
  facet normal 0.207913 -0.978147 0
    outer loop
      vertex -0.772542 2.37764 18.75
      vertex -0.261321 2.4863 18.75
      vertex -0.772542 2.37764 21.25
    endloop
  endfacet
  facet normal 0 -1 0
    outer loop
      vertex 0.261321 2.4863 18.75
      vertex 0.261321 2.4863 21.25
      vertex -0.261321 2.4863 21.25
    endloop
  endfacet
  facet normal 0 -1 0
    outer loop
      vertex -0.261321 2.4863 18.75
      vertex 0.261321 2.4863 18.75
      vertex -0.261321 2.4863 21.25
    endloop
  endfacet
  facet normal -0.207913 -0.978147 0
    outer loop
      vertex 0.772542 2.37764 18.75
      vertex 0.772542 2.37764 21.25
      vertex 0.261321 2.4863 21.25
    endloop
  endfacet
  facet normal -0.207913 -0.978147 0
    outer loop
      vertex 0.261321 2.4863 18.75
      vertex 0.772542 2.37764 18.75
      vertex 0.261321 2.4863 21.25
    endloop
  endfacet
  facet normal -0.406735 -0.913546 0
    outer loop
      vertex 1.25 2.16506 18.75
      vertex 1.25 2.16506 21.25
      vertex 0.772542 2.37764 21.25
    endloop
  endfacet
  facet normal -0.406735 -0.913546 0
    outer loop
      vertex 0.772542 2.37764 18.75
      vertex 1.25 2.16506 18.75
      vertex 0.772542 2.37764 21.25
    endloop
  endfacet
  facet normal -0.587786 -0.809017 0
    outer loop
      vertex 1.67283 1.85786 18.75
      vertex 1.67283 1.85786 21.25
      vertex 1.25 2.16506 21.25
    endloop
  endfacet
  facet normal -0.587786 -0.809017 0
    outer loop
      vertex 1.25 2.16506 18.75
      vertex 1.67283 1.85786 18.75
      vertex 1.25 2.16506 21.25
    endloop
  endfacet
  facet normal -0.743146 -0.66913 0
    outer loop
      vertex 2.02254 1.46946 21.25
      vertex 1.67283 1.85786 21.25
      vertex 2.02254 1.46946 18.75
    endloop
  endfacet
  facet normal -0.743146 -0.66913 0
    outer loop
      vertex 2.02254 1.46946 18.75
      vertex 1.67283 1.85786 21.25
      vertex 1.67283 1.85786 18.75
    endloop
  endfacet
  facet normal -0.866024 -0.500002 0
    outer loop
      vertex 2.28386 1.01684 21.25
      vertex 2.02254 1.46946 21.25
      vertex 2.28386 1.01684 18.75
    endloop
  endfacet
  facet normal -0.866024 -0.500002 0
    outer loop
      vertex 2.28386 1.01684 18.75
      vertex 2.02254 1.46946 21.25
      vertex 2.02254 1.46946 18.75
    endloop
  endfacet
  facet normal -0.951057 -0.309016 0
    outer loop
      vertex 2.44537 0.519779 21.25
      vertex 2.28386 1.01684 21.25
      vertex 2.44537 0.519779 18.75
    endloop
  endfacet
  facet normal -0.951057 -0.309016 0
    outer loop
      vertex 2.44537 0.519779 18.75
      vertex 2.28386 1.01684 21.25
      vertex 2.28386 1.01684 18.75
    endloop
  endfacet
  facet normal -0.994522 -0.104529 0
    outer loop
      vertex 2.5 0 21.25
      vertex 2.44537 0.519779 21.25
      vertex 2.5 0 18.75
    endloop
  endfacet
  facet normal -0.994522 -0.104529 0
    outer loop
      vertex 2.5 0 18.75
      vertex 2.44537 0.519779 21.25
      vertex 2.44537 0.519779 18.75
    endloop
  endfacet
  facet normal -0.994522 0.104529 0
    outer loop
      vertex 2.5 0 21.25
      vertex 2.5 0 18.75
      vertex 2.44537 -0.519779 21.25
    endloop
  endfacet
  facet normal -0.994522 0.104529 0
    outer loop
      vertex 2.44537 -0.519779 21.25
      vertex 2.5 0 18.75
      vertex 2.44537 -0.519779 18.75
    endloop
  endfacet
  facet normal -0.951057 0.309016 0
    outer loop
      vertex 2.44537 -0.519779 21.25
      vertex 2.44537 -0.519779 18.75
      vertex 2.28386 -1.01684 21.25
    endloop
  endfacet
  facet normal -0.951057 0.309016 0
    outer loop
      vertex 2.28386 -1.01684 21.25
      vertex 2.44537 -0.519779 18.75
      vertex 2.28386 -1.01684 18.75
    endloop
  endfacet
  facet normal -0.866024 0.500002 0
    outer loop
      vertex 2.28386 -1.01684 21.25
      vertex 2.28386 -1.01684 18.75
      vertex 2.02254 -1.46946 21.25
    endloop
  endfacet
  facet normal -0.866024 0.500002 0
    outer loop
      vertex 2.02254 -1.46946 21.25
      vertex 2.28386 -1.01684 18.75
      vertex 2.02254 -1.46946 18.75
    endloop
  endfacet
  facet normal -0.743146 0.66913 0
    outer loop
      vertex 2.02254 -1.46946 21.25
      vertex 2.02254 -1.46946 18.75
      vertex 1.67283 -1.85786 21.25
    endloop
  endfacet
  facet normal -0.743146 0.66913 0
    outer loop
      vertex 1.67283 -1.85786 21.25
      vertex 2.02254 -1.46946 18.75
      vertex 1.67283 -1.85786 18.75
    endloop
  endfacet
  facet normal -0.587786 0.809017 0
    outer loop
      vertex 1.67283 -1.85786 21.25
      vertex 1.67283 -1.85786 18.75
      vertex 1.25 -2.16506 21.25
    endloop
  endfacet
  facet normal -0.587786 0.809017 0
    outer loop
      vertex 1.25 -2.16506 21.25
      vertex 1.67283 -1.85786 18.75
      vertex 1.25 -2.16506 18.75
    endloop
  endfacet
  facet normal -0.406735 0.913546 0
    outer loop
      vertex 1.25 -2.16506 21.25
      vertex 1.25 -2.16506 18.75
      vertex 0.772542 -2.37764 21.25
    endloop
  endfacet
  facet normal -0.406735 0.913546 0
    outer loop
      vertex 0.772542 -2.37764 21.25
      vertex 1.25 -2.16506 18.75
      vertex 0.772542 -2.37764 18.75
    endloop
  endfacet
  facet normal -0.207913 0.978147 0
    outer loop
      vertex 0.772542 -2.37764 21.25
      vertex 0.772542 -2.37764 18.75
      vertex 0.261321 -2.4863 21.25
    endloop
  endfacet
  facet normal -0.207913 0.978147 0
    outer loop
      vertex 0.261321 -2.4863 21.25
      vertex 0.772542 -2.37764 18.75
      vertex 0.261321 -2.4863 18.75
    endloop
  endfacet
  facet normal 0 1 0
    outer loop
      vertex 0.261321 -2.4863 21.25
      vertex 0.261321 -2.4863 18.75
      vertex -0.261321 -2.4863 21.25
    endloop
  endfacet
  facet normal 0 1 0
    outer loop
      vertex -0.261321 -2.4863 21.25
      vertex 0.261321 -2.4863 18.75
      vertex -0.261321 -2.4863 18.75
    endloop
  endfacet
  facet normal 0.207913 0.978147 0
    outer loop
      vertex -0.261321 -2.4863 21.25
      vertex -0.261321 -2.4863 18.75
      vertex -0.772542 -2.37764 21.25
    endloop
  endfacet
  facet normal 0.207913 0.978147 0
    outer loop
      vertex -0.772542 -2.37764 21.25
      vertex -0.261321 -2.4863 18.75
      vertex -0.772542 -2.37764 18.75
    endloop
  endfacet
  facet normal 0.406735 0.913546 0
    outer loop
      vertex -0.772542 -2.37764 21.25
      vertex -0.772542 -2.37764 18.75
      vertex -1.25 -2.16506 21.25
    endloop
  endfacet
  facet normal 0.406735 0.913546 0
    outer loop
      vertex -1.25 -2.16506 21.25
      vertex -0.772542 -2.37764 18.75
      vertex -1.25 -2.16506 18.75
    endloop
  endfacet
  facet normal 0.587786 0.809017 0
    outer loop
      vertex -1.25 -2.16506 21.25
      vertex -1.25 -2.16506 18.75
      vertex -1.67283 -1.85786 21.25
    endloop
  endfacet
  facet normal 0.587786 0.809017 0
    outer loop
      vertex -1.67283 -1.85786 21.25
      vertex -1.25 -2.16506 18.75
      vertex -1.67283 -1.85786 18.75
    endloop
  endfacet
  facet normal 0.743146 0.66913 0
    outer loop
      vertex -2.02254 -1.46946 21.25
      vertex -1.67283 -1.85786 21.25
      vertex -1.67283 -1.85786 18.75
    endloop
  endfacet
  facet normal 0.743146 0.66913 0
    outer loop
      vertex -2.02254 -1.46946 18.75
      vertex -2.02254 -1.46946 21.25
      vertex -1.67283 -1.85786 18.75
    endloop
  endfacet
  facet normal 0.866024 0.500002 0
    outer loop
      vertex -2.28386 -1.01684 21.25
      vertex -2.02254 -1.46946 21.25
      vertex -2.02254 -1.46946 18.75
    endloop
  endfacet
  facet normal 0.866024 0.500002 0
    outer loop
      vertex -2.28386 -1.01684 18.75
      vertex -2.28386 -1.01684 21.25
      vertex -2.02254 -1.46946 18.75
    endloop
  endfacet
  facet normal 0.951057 0.309016 0
    outer loop
      vertex -2.44537 -0.519779 21.25
      vertex -2.28386 -1.01684 21.25
      vertex -2.28386 -1.01684 18.75
    endloop
  endfacet
  facet normal 0.951057 0.309016 0
    outer loop
      vertex -2.44537 -0.519779 18.75
      vertex -2.44537 -0.519779 21.25
      vertex -2.28386 -1.01684 18.75
    endloop
  endfacet
  facet normal 0 0 -1
    outer loop
      vertex -2.5 0 21.25
      vertex -2.44537 0.519779 21.25
      vertex -2.44537 -0.519779 21.25
    endloop
  endfacet
  facet normal 0 0 -1
    outer loop
      vertex -2.44537 -0.519779 21.25
      vertex -2.44537 0.519779 21.25
      vertex -2.28386 1.01684 21.25
    endloop
  endfacet
  facet normal 0 0 -1
    outer loop
      vertex -2.44537 -0.519779 21.25
      vertex -2.28386 1.01684 21.25
      vertex -2.02254 1.46946 21.25
    endloop
  endfacet
  facet normal 0 0 -1
    outer loop
      vertex -2.44537 -0.519779 21.25
      vertex -2.02254 1.46946 21.25
      vertex -1.67283 1.85786 21.25
    endloop
  endfacet
  facet normal 0 0 -1
    outer loop
      vertex -2.44537 -0.519779 21.25
      vertex -1.67283 1.85786 21.25
      vertex -1.25 2.16506 21.25
    endloop
  endfacet
  facet normal 0 0 -1
    outer loop
      vertex -2.44537 -0.519779 21.25
      vertex -1.25 2.16506 21.25
      vertex -0.772542 2.37764 21.25
    endloop
  endfacet
  facet normal 0 0 -1
    outer loop
      vertex -2.44537 -0.519779 21.25
      vertex -0.772542 2.37764 21.25
      vertex -0.261321 2.4863 21.25
    endloop
  endfacet
  facet normal 0 0 -1
    outer loop
      vertex -2.44537 -0.519779 21.25
      vertex -0.261321 2.4863 21.25
      vertex 0.261321 2.4863 21.25
    endloop
  endfacet
  facet normal 0 0 -1
    outer loop
      vertex -2.44537 -0.519779 21.25
      vertex 0.261321 2.4863 21.25
      vertex 0.772542 2.37764 21.25
    endloop
  endfacet
  facet normal 0 0 -1
    outer loop
      vertex -2.44537 -0.519779 21.25
      vertex 0.772542 2.37764 21.25
      vertex 1.25 2.16506 21.25
    endloop
  endfacet
  facet normal 0 0 -1
    outer loop
      vertex -2.44537 -0.519779 21.25
      vertex 1.25 2.16506 21.25
      vertex 1.67283 1.85786 21.25
    endloop
  endfacet
  facet normal 0 0 -1
    outer loop
      vertex -2.44537 -0.519779 21.25
      vertex 1.67283 1.85786 21.25
      vertex 2.02254 1.46946 21.25
    endloop
  endfacet
  facet normal 0 0 -1
    outer loop
      vertex -2.44537 -0.519779 21.25
      vertex 2.02254 1.46946 21.25
      vertex 2.28386 1.01684 21.25
    endloop
  endfacet
  facet normal 0 0 -1
    outer loop
      vertex -2.44537 -0.519779 21.25
      vertex 2.28386 1.01684 21.25
      vertex 2.44537 0.519779 21.25
    endloop
  endfacet
  facet normal 0 0 -1
    outer loop
      vertex -2.44537 -0.519779 21.25
      vertex 2.44537 0.519779 21.25
      vertex 2.5 0 21.25
    endloop
  endfacet
  facet normal 0 0 -1
    outer loop
      vertex -2.44537 -0.519779 21.25
      vertex 2.5 0 21.25
      vertex 2.44537 -0.519779 21.25
    endloop
  endfacet
  facet normal 0 0 -1
    outer loop
      vertex -2.44537 -0.519779 21.25
      vertex 2.44537 -0.519779 21.25
      vertex 2.28386 -1.01684 21.25
    endloop
  endfacet
  facet normal 0 0 -1
    outer loop
      vertex -2.44537 -0.519779 21.25
      vertex 2.28386 -1.01684 21.25
      vertex 2.02254 -1.46946 21.25
    endloop
  endfacet
  facet normal 0 0 -1
    outer loop
      vertex -2.44537 -0.519779 21.25
      vertex 2.02254 -1.46946 21.25
      vertex 1.67283 -1.85786 21.25
    endloop
  endfacet
  facet normal 0 0 -1
    outer loop
      vertex -2.44537 -0.519779 21.25
      vertex 1.67283 -1.85786 21.25
      vertex 1.25 -2.16506 21.25
    endloop
  endfacet
  facet normal 0 0 -1
    outer loop
      vertex -2.44537 -0.519779 21.25
      vertex 1.25 -2.16506 21.25
      vertex 0.772542 -2.37764 21.25
    endloop
  endfacet
  facet normal 0 0 -1
    outer loop
      vertex -2.44537 -0.519779 21.25
      vertex 0.772542 -2.37764 21.25
      vertex 0.261321 -2.4863 21.25
    endloop
  endfacet
  facet normal 0 0 -1
    outer loop
      vertex -2.44537 -0.519779 21.25
      vertex 0.261321 -2.4863 21.25
      vertex -0.261321 -2.4863 21.25
    endloop
  endfacet
  facet normal 0 0 -1
    outer loop
      vertex -2.44537 -0.519779 21.25
      vertex -0.261321 -2.4863 21.25
      vertex -0.772542 -2.37764 21.25
    endloop
  endfacet
  facet normal 0 0 -1
    outer loop
      vertex -2.44537 -0.519779 21.25
      vertex -0.772542 -2.37764 21.25
      vertex -1.25 -2.16506 21.25
    endloop
  endfacet
  facet normal 0 0 -1
    outer loop
      vertex -2.44537 -0.519779 21.25
      vertex -1.25 -2.16506 21.25
      vertex -1.67283 -1.85786 21.25
    endloop
  endfacet
  facet normal 0 0 -1
    outer loop
      vertex -2.44537 -0.519779 21.25
      vertex -1.67283 -1.85786 21.25
      vertex -2.02254 -1.46946 21.25
    endloop
  endfacet
  facet normal 0 0 -1
    outer loop
      vertex -2.44537 -0.519779 21.25
      vertex -2.02254 -1.46946 21.25
      vertex -2.28386 -1.01684 21.25
    endloop
  endfacet
endsolid OpenSCAD_Model
